# xmcd
# 
# Track frame offsets:
#     150
#     25920
#     62080
#     84095
#     120910
#     142365
#     172170
#     225176
#     251005
#     276975
# 
# Disc length: 4372
# 
# Revision: 0
# Processed by: cddbd v1.5.2PL0 Copyright (c) Steve Scherf et al.
# Submitted via: fre:ac v1.0.27
# 
DISCID=8411120a
DTITLE=Half-Pint Jones - Trilogy of Patches and Olaf
DYEAR=2007
DGENRE=Blues
TTITLE0=Muddfoot
TTITLE1=Chi Chi's
TTITLE2=In Your Skin
TTITLE3=Cayenne
TTITLE4=Kite Boy
TTITLE5=Fruition
TTITLE6=Trilogy of Patches and Olaf
TTITLE7=Emmancipation
TTITLE8=Bachelor
TTITLE9=Erin's Groove
EXTD=
EXTT0=
EXTT1=
EXTT2=
EXTT3=
EXTT4=
EXTT5=
EXTT6=
EXTT7=
EXTT8=
EXTT9=
PLAYORDER=
